<?xml version="1.0" encoding="UTF-8" standalone="no"?>
<!DOCTYPE svg PUBLIC "-//W3C//DTD SVG 1.1//EN"
 "http://www.w3.org/Graphics/SVG/1.1/DTD/svg11.dtd">
<!-- Generated by graphviz version 2.43.0 (0)
 -->
<!-- Title: classes Pages: 1 -->
<svg width="1104pt" height="755pt"
 viewBox="0.00 0.00 1103.50 755.00" xmlns="http://www.w3.org/2000/svg" xmlns:xlink="http://www.w3.org/1999/xlink">
<g id="graph0" class="graph" transform="scale(1 1) rotate(0) translate(4 751)">
<title>classes</title>
<polygon fill="white" stroke="transparent" points="-4,4 -4,-751 1099.5,-751 1099.5,4 -4,4"/>
<!-- Rnalib.Alphabet.Alphabet -->
<g id="node1" class="node">
<title>Rnalib.Alphabet.Alphabet</title>
<polygon fill="none" stroke="black" points="11.5,-60 11.5,-160 91.5,-160 91.5,-60 11.5,-60"/>
<text text-anchor="middle" x="51.5" y="-144.8" font-family="Times,serif" font-size="14.00">Alphabet</text>
<polyline fill="none" stroke="black" points="11.5,-137 91.5,-137 "/>
<polyline fill="none" stroke="black" points="11.5,-113 91.5,-113 "/>
<text text-anchor="start" x="19.5" y="-97.8" font-family="Times,serif" font-size="14.00">dna()</text>
<text text-anchor="start" x="19.5" y="-82.8" font-family="Times,serif" font-size="14.00">dotpar()</text>
<text text-anchor="start" x="19.5" y="-67.8" font-family="Times,serif" font-size="14.00">rna()</text>
</g>
<!-- Rnalib.Predict_structure.Predict_structure -->
<g id="node2" class="node">
<title>Rnalib.Predict_structure.Predict_structure</title>
<polygon fill="none" stroke="black" points="0,-527.5 0,-746.5 357,-746.5 357,-527.5 0,-527.5"/>
<text text-anchor="middle" x="178.5" y="-731.3" font-family="Times,serif" font-size="14.00">Predict_structure</text>
<polyline fill="none" stroke="black" points="0,-723.5 357,-723.5 "/>
<text text-anchor="start" x="8" y="-708.3" font-family="Times,serif" font-size="14.00">all_structures</text>
<text text-anchor="start" x="8" y="-693.3" font-family="Times,serif" font-size="14.00">matrix</text>
<text text-anchor="start" x="8" y="-678.3" font-family="Times,serif" font-size="14.00">predict_infos</text>
<text text-anchor="start" x="8" y="-663.3" font-family="Times,serif" font-size="14.00">rna</text>
<text text-anchor="start" x="8" y="-648.3" font-family="Times,serif" font-size="14.00">scores</text>
<text text-anchor="start" x="8" y="-633.3" font-family="Times,serif" font-size="14.00">structure</text>
<text text-anchor="start" x="8" y="-618.3" font-family="Times,serif" font-size="14.00">structures_nbr</text>
<polyline fill="none" stroke="black" points="0,-610.5 357,-610.5 "/>
<text text-anchor="start" x="8" y="-595.3" font-family="Times,serif" font-size="14.00">change_scores(scores)</text>
<text text-anchor="start" x="8" y="-580.3" font-family="Times,serif" font-size="14.00">export_matrixt_to_csv(outcsv, sep)</text>
<text text-anchor="start" x="8" y="-565.3" font-family="Times,serif" font-size="14.00">print_all_structures(filename)</text>
<text text-anchor="start" x="8" y="-550.3" font-family="Times,serif" font-size="14.00">print_matrix()</text>
<text text-anchor="start" x="8" y="-535.3" font-family="Times,serif" font-size="14.00">structures_prediction(skipPredAll, use_recurse)</text>
</g>
<!-- Rnalib.Rna_parser.Rna_parser -->
<g id="node3" class="node">
<title>Rnalib.Rna_parser.Rna_parser</title>
<polygon fill="none" stroke="black" points="597.5,-52.5 597.5,-167.5 1001.5,-167.5 1001.5,-52.5 597.5,-52.5"/>
<text text-anchor="middle" x="799.5" y="-152.3" font-family="Times,serif" font-size="14.00">Rna_parser</text>
<polyline fill="none" stroke="black" points="597.5,-144.5 1001.5,-144.5 "/>
<polyline fill="none" stroke="black" points="597.5,-120.5 1001.5,-120.5 "/>
<text text-anchor="start" x="605.5" y="-105.3" font-family="Times,serif" font-size="14.00">fasta_to_db(infasta, outdb, minloop, scores)</text>
<text text-anchor="start" x="605.5" y="-90.3" font-family="Times,serif" font-size="14.00">parse_connect_file(filename, minimal_loop_length)</text>
<text text-anchor="start" x="605.5" y="-75.3" font-family="Times,serif" font-size="14.00">parse_dotbrackets_file(filename, minimal_loop_length)</text>
<text text-anchor="start" x="605.5" y="-60.3" font-family="Times,serif" font-size="14.00">parse_fasta(filename)</text>
</g>
<!-- Rnalib.Rna_seq.Rna_seq -->
<g id="node4" class="node">
<title>Rnalib.Rna_seq.Rna_seq</title>
<polygon fill="none" stroke="black" points="1019.5,-68 1019.5,-152 1095.5,-152 1095.5,-68 1019.5,-68"/>
<text text-anchor="middle" x="1057.5" y="-136.8" font-family="Times,serif" font-size="14.00">Rna_seq</text>
<polyline fill="none" stroke="black" points="1019.5,-129 1095.5,-129 "/>
<text text-anchor="start" x="1027.5" y="-113.8" font-family="Times,serif" font-size="14.00">id</text>
<text text-anchor="start" x="1027.5" y="-98.8" font-family="Times,serif" font-size="14.00">seq</text>
<polyline fill="none" stroke="black" points="1019.5,-91 1095.5,-91 "/>
<text text-anchor="middle" x="1057.5" y="-75.8" font-family="Times,serif" font-size="14.00"> </text>
</g>
<!-- Rnalib.Rna_structure.Rna_structure -->
<g id="node5" class="node">
<title>Rnalib.Rna_structure.Rna_structure</title>
<polygon fill="none" stroke="black" points="217,-271.5 217,-475.5 598,-475.5 598,-271.5 217,-271.5"/>
<text text-anchor="middle" x="407.5" y="-460.3" font-family="Times,serif" font-size="14.00">Rna_structure</text>
<polyline fill="none" stroke="black" points="217,-452.5 598,-452.5 "/>
<text text-anchor="start" x="225" y="-437.3" font-family="Times,serif" font-size="14.00">arbre</text>
<text text-anchor="start" x="225" y="-422.3" font-family="Times,serif" font-size="14.00">dotpar</text>
<text text-anchor="start" x="225" y="-407.3" font-family="Times,serif" font-size="14.00">fold</text>
<text text-anchor="start" x="225" y="-392.3" font-family="Times,serif" font-size="14.00">rna</text>
<text text-anchor="start" x="225" y="-377.3" font-family="Times,serif" font-size="14.00">score</text>
<polyline fill="none" stroke="black" points="217,-369.5 598,-369.5 "/>
<text text-anchor="start" x="225" y="-354.3" font-family="Times,serif" font-size="14.00">check_hairpin(minimal_loop_length)</text>
<text text-anchor="start" x="225" y="-339.3" font-family="Times,serif" font-size="14.00">check_structure()</text>
<text text-anchor="start" x="225" y="-324.3" font-family="Times,serif" font-size="14.00">compact_struct()</text>
<text text-anchor="start" x="225" y="-309.3" font-family="Times,serif" font-size="14.00">dot_par_to_latex(dotb, print_struct, numbers_shift)</text>
<text text-anchor="start" x="225" y="-294.3" font-family="Times,serif" font-size="14.00">print_struct(sepsize, print_pos)</text>
<text text-anchor="start" x="225" y="-279.3" font-family="Times,serif" font-size="14.00">structure_to_ct(filename)</text>
</g>
<!-- Rnalib.Rna_structure.Rna_structure&#45;&gt;Rnalib.Predict_structure.Predict_structure -->
<g id="edge1" class="edge">
<title>Rnalib.Rna_structure.Rna_structure&#45;&gt;Rnalib.Predict_structure.Predict_structure</title>
<path fill="none" stroke="black" d="M318.96,-475.6C306.78,-489.51 294.18,-503.9 281.76,-518.08"/>
<polygon fill="black" stroke="black" points="281.54,-518.34 280.6,-525.48 273.63,-527.36 274.58,-520.21 281.54,-518.34"/>
<text text-anchor="middle" x="341" y="-497.8" font-family="Times,serif" font-size="14.00" fill="green">__structure</text>
</g>
<!-- Rnalib.Scores.Scores -->
<g id="node6" class="node">
<title>Rnalib.Scores.Scores</title>
<polygon fill="none" stroke="black" points="109.5,-60.5 109.5,-159.5 205.5,-159.5 205.5,-60.5 109.5,-60.5"/>
<text text-anchor="middle" x="157.5" y="-144.3" font-family="Times,serif" font-size="14.00">Scores</text>
<polyline fill="none" stroke="black" points="109.5,-136.5 205.5,-136.5 "/>
<text text-anchor="start" x="117.5" y="-121.3" font-family="Times,serif" font-size="14.00">allowed_bp</text>
<text text-anchor="start" x="117.5" y="-106.3" font-family="Times,serif" font-size="14.00">pairs</text>
<text text-anchor="start" x="117.5" y="-91.3" font-family="Times,serif" font-size="14.00">scores</text>
<polyline fill="none" stroke="black" points="109.5,-83.5 205.5,-83.5 "/>
<text text-anchor="middle" x="157.5" y="-68.3" font-family="Times,serif" font-size="14.00"> </text>
</g>
<!-- Rnalib.Scores.Scores&#45;&gt;Rnalib.Predict_structure.Predict_structure -->
<g id="edge2" class="edge">
<title>Rnalib.Scores.Scores&#45;&gt;Rnalib.Predict_structure.Predict_structure</title>
<path fill="none" stroke="black" d="M135.68,-159.59C122.92,-190.73 108.06,-232.41 101.5,-271 86.23,-360.82 81.24,-387.17 101.5,-476 104.52,-489.25 108.79,-502.68 113.78,-515.84"/>
<polygon fill="black" stroke="black" points="113.91,-516.17 119.84,-520.27 118.34,-527.32 112.4,-523.22 113.91,-516.17"/>
<text text-anchor="middle" x="155" y="-369.8" font-family="Times,serif" font-size="14.00" fill="green">__bases_scores</text>
</g>
<!-- Rnalib.Scores.Scores&#45;&gt;Rnalib.Rna_structure.Rna_structure -->
<g id="edge3" class="edge">
<title>Rnalib.Scores.Scores&#45;&gt;Rnalib.Rna_structure.Rna_structure</title>
<path fill="none" stroke="black" d="M203.94,-159.57C231.6,-188.51 267.89,-226.47 302.17,-262.32"/>
<polygon fill="black" stroke="black" points="302.54,-262.71 309.57,-264.28 310.83,-271.38 303.79,-269.81 302.54,-262.71"/>
<text text-anchor="middle" x="320.5" y="-241.8" font-family="Times,serif" font-size="14.00" fill="green">__scores</text>
</g>
<!-- Rnalib.Tree.Tree -->
<g id="node7" class="node">
<title>Rnalib.Tree.Tree</title>
<polygon fill="none" stroke="black" points="315,-0.5 315,-219.5 500,-219.5 500,-0.5 315,-0.5"/>
<text text-anchor="middle" x="407.5" y="-204.3" font-family="Times,serif" font-size="14.00">Tree</text>
<polyline fill="none" stroke="black" points="315,-196.5 500,-196.5 "/>
<text text-anchor="start" x="323" y="-181.3" font-family="Times,serif" font-size="14.00">childs</text>
<text text-anchor="start" x="323" y="-166.3" font-family="Times,serif" font-size="14.00">is_leaf</text>
<text text-anchor="start" x="323" y="-151.3" font-family="Times,serif" font-size="14.00">is_root</text>
<text text-anchor="start" x="323" y="-136.3" font-family="Times,serif" font-size="14.00">parent</text>
<text text-anchor="start" x="323" y="-121.3" font-family="Times,serif" font-size="14.00">valeur</text>
<polyline fill="none" stroke="black" points="315,-113.5 500,-113.5 "/>
<text text-anchor="start" x="323" y="-98.3" font-family="Times,serif" font-size="14.00">add_child(tree)</text>
<text text-anchor="start" x="323" y="-83.3" font-family="Times,serif" font-size="14.00">compact_tree()</text>
<text text-anchor="start" x="323" y="-68.3" font-family="Times,serif" font-size="14.00">print_tree(print_tuples)</text>
<text text-anchor="start" x="323" y="-53.3" font-family="Times,serif" font-size="14.00">set_childs(value)</text>
<text text-anchor="start" x="323" y="-38.3" font-family="Times,serif" font-size="14.00">set_parent(value)</text>
<text text-anchor="start" x="323" y="-23.3" font-family="Times,serif" font-size="14.00">set_valeur(value)</text>
<text text-anchor="start" x="323" y="-8.3" font-family="Times,serif" font-size="14.00">tree_to_dotpar()</text>
</g>
<!-- Rnalib.Tree.Tree&#45;&gt;Rnalib.Rna_structure.Rna_structure -->
<g id="edge4" class="edge">
<title>Rnalib.Tree.Tree&#45;&gt;Rnalib.Rna_structure.Rna_structure</title>
<path fill="none" stroke="black" d="M407.5,-219.63C407.5,-232.74 407.5,-246.15 407.5,-259.32"/>
<polygon fill="black" stroke="black" points="407.5,-259.33 411.5,-265.33 407.5,-271.33 403.5,-265.33 407.5,-259.33"/>
<text text-anchor="middle" x="434" y="-241.8" font-family="Times,serif" font-size="14.00" fill="green">__arbre</text>
</g>
<!-- Rnalib.Tree.Tree&#45;&gt;Rnalib.Tree.Tree -->
<g id="edge5" class="edge">
<title>Rnalib.Tree.Tree&#45;&gt;Rnalib.Tree.Tree</title>
<path fill="none" stroke="black" d="M500.2,-88.56C510.98,-92.51 518,-99.66 518,-110 518,-116.3 515.39,-121.41 510.92,-125.35"/>
<polygon fill="black" stroke="black" points="510.63,-125.51 507.39,-131.95 500.2,-131.44 503.44,-125 510.63,-125.51"/>
<text text-anchor="middle" x="548.5" y="-106.3" font-family="Times,serif" font-size="14.00" fill="green">__parent</text>
</g>
</g>
</svg>
