<?xml version="1.0" encoding="UTF-8" standalone="no"?>
<!DOCTYPE svg PUBLIC "-//W3C//DTD SVG 1.1//EN"
 "http://www.w3.org/Graphics/SVG/1.1/DTD/svg11.dtd">
<!-- Generated by graphviz version 2.43.0 (0)
 -->
<!-- Title: packages Pages: 1 -->
<svg width="521pt" height="404pt"
 viewBox="0.00 0.00 520.50 404.00" xmlns="http://www.w3.org/2000/svg" xmlns:xlink="http://www.w3.org/1999/xlink">
<g id="graph0" class="graph" transform="scale(1 1) rotate(0) translate(4 400)">
<title>packages</title>
<polygon fill="white" stroke="transparent" points="-4,4 -4,-400 516.5,-400 516.5,4 -4,4"/>
<!-- Rnalib -->
<g id="node1" class="node">
<title>Rnalib</title>
<polygon fill="none" stroke="black" points="322,-36 260,-36 260,0 322,0 322,-36"/>
<text text-anchor="middle" x="291" y="-14.3" font-family="Times,serif" font-size="14.00">Rnalib</text>
</g>
<!-- Rnalib.Alphabet -->
<g id="node2" class="node">
<title>Rnalib.Alphabet</title>
<polygon fill="none" stroke="black" points="141.5,-396 10.5,-396 10.5,-360 141.5,-360 141.5,-396"/>
<text text-anchor="middle" x="76" y="-374.3" font-family="Times,serif" font-size="14.00">Rnalib.Alphabet</text>
</g>
<!-- Rnalib&#45;&gt;Rnalib.Alphabet -->
<g id="edge1" class="edge">
<title>Rnalib&#45;&gt;Rnalib.Alphabet</title>
<path fill="none" stroke="black" d="M259.86,-20C184.79,-24.24 0,-46.32 0,-161 0,-161 0,-161 0,-235 0,-280.36 30.52,-325.25 52.88,-352.05"/>
<polygon fill="black" stroke="black" points="59.51,-359.77 49.58,-355.12 56.25,-355.98 52.99,-352.19 52.99,-352.19 52.99,-352.19 56.25,-355.98 56.4,-349.26 59.51,-359.77 59.51,-359.77"/>
</g>
<!-- Rnalib.Predict_structure -->
<g id="node3" class="node">
<title>Rnalib.Predict_structure</title>
<polygon fill="none" stroke="black" points="334,-180 142,-180 142,-144 334,-144 334,-180"/>
<text text-anchor="middle" x="238" y="-158.3" font-family="Times,serif" font-size="14.00">Rnalib.Predict_structure</text>
</g>
<!-- Rnalib&#45;&gt;Rnalib.Predict_structure -->
<g id="edge2" class="edge">
<title>Rnalib&#45;&gt;Rnalib.Predict_structure</title>
<path fill="none" stroke="black" d="M289.18,-36.27C286.82,-54.61 281.8,-84.18 272,-108 268.11,-117.45 262.52,-127.07 257,-135.48"/>
<polygon fill="black" stroke="black" points="251.34,-143.73 253.28,-132.94 254.17,-139.61 257,-135.48 257,-135.48 257,-135.48 254.17,-139.61 260.71,-138.03 251.34,-143.73 251.34,-143.73"/>
</g>
<!-- Rnalib.Rna_parser -->
<g id="node4" class="node">
<title>Rnalib.Rna_parser</title>
<polygon fill="none" stroke="black" points="263,-108 115,-108 115,-72 263,-72 263,-108"/>
<text text-anchor="middle" x="189" y="-86.3" font-family="Times,serif" font-size="14.00">Rnalib.Rna_parser</text>
</g>
<!-- Rnalib&#45;&gt;Rnalib.Rna_parser -->
<g id="edge3" class="edge">
<title>Rnalib&#45;&gt;Rnalib.Rna_parser</title>
<path fill="none" stroke="black" d="M266.05,-36.12C252.96,-45.11 236.74,-56.24 222.56,-65.97"/>
<polygon fill="black" stroke="black" points="214.05,-71.81 219.75,-62.44 218.17,-68.98 222.29,-66.15 222.29,-66.15 222.29,-66.15 218.17,-68.98 224.84,-69.86 214.05,-71.81 214.05,-71.81"/>
</g>
<!-- Rnalib.Rna_seq -->
<g id="node5" class="node">
<title>Rnalib.Rna_seq</title>
<polygon fill="none" stroke="black" points="230,-324 104,-324 104,-288 230,-288 230,-324"/>
<text text-anchor="middle" x="167" y="-302.3" font-family="Times,serif" font-size="14.00">Rnalib.Rna_seq</text>
</g>
<!-- Rnalib&#45;&gt;Rnalib.Rna_seq -->
<g id="edge4" class="edge">
<title>Rnalib&#45;&gt;Rnalib.Rna_seq</title>
<path fill="none" stroke="black" d="M259.72,-23.39C211.98,-30.81 124.5,-47.45 106,-72 84.9,-99.99 69.67,-118.1 126,-252 130.2,-261.97 136.75,-271.69 143.4,-280.03"/>
<polygon fill="black" stroke="black" points="150,-287.86 140.12,-283.11 146.78,-284.04 143.56,-280.21 143.56,-280.21 143.56,-280.21 146.78,-284.04 147,-277.32 150,-287.86 150,-287.86"/>
</g>
<!-- Rnalib.Rna_structure -->
<g id="node6" class="node">
<title>Rnalib.Rna_structure</title>
<polygon fill="none" stroke="black" points="410,-252 242,-252 242,-216 410,-216 410,-252"/>
<text text-anchor="middle" x="326" y="-230.3" font-family="Times,serif" font-size="14.00">Rnalib.Rna_structure</text>
</g>
<!-- Rnalib&#45;&gt;Rnalib.Rna_structure -->
<g id="edge5" class="edge">
<title>Rnalib&#45;&gt;Rnalib.Rna_structure</title>
<path fill="none" stroke="black" d="M304.1,-36.01C320.91,-59 349.18,-101.99 360,-144 363.99,-159.49 364.5,-164.65 360,-180 357.2,-189.55 352.09,-199.02 346.67,-207.24"/>
<polygon fill="black" stroke="black" points="340.75,-215.63 342.84,-204.87 343.63,-211.55 346.51,-207.46 346.51,-207.46 346.51,-207.46 343.63,-211.55 350.19,-210.05 340.75,-215.63 340.75,-215.63"/>
</g>
<!-- Rnalib.Scores -->
<g id="node7" class="node">
<title>Rnalib.Scores</title>
<polygon fill="none" stroke="black" points="383.5,-324 268.5,-324 268.5,-288 383.5,-288 383.5,-324"/>
<text text-anchor="middle" x="326" y="-302.3" font-family="Times,serif" font-size="14.00">Rnalib.Scores</text>
</g>
<!-- Rnalib&#45;&gt;Rnalib.Scores -->
<g id="edge6" class="edge">
<title>Rnalib&#45;&gt;Rnalib.Scores</title>
<path fill="none" stroke="black" d="M314.74,-36.22C326.71,-45.77 340.82,-58.44 351,-72 393.51,-128.59 403.51,-146.94 419,-216 422.5,-231.61 427.04,-238.17 419,-252 411.41,-265.06 399.27,-275.16 386.24,-282.88"/>
<polygon fill="black" stroke="black" points="377.11,-287.84 383.75,-279.11 381.5,-285.45 385.9,-283.06 385.9,-283.06 385.9,-283.06 381.5,-285.45 388.05,-287.02 377.11,-287.84 377.11,-287.84"/>
</g>
<!-- Rnalib.Tree -->
<g id="node8" class="node">
<title>Rnalib.Tree</title>
<polygon fill="none" stroke="black" points="512.5,-324 413.5,-324 413.5,-288 512.5,-288 512.5,-324"/>
<text text-anchor="middle" x="463" y="-302.3" font-family="Times,serif" font-size="14.00">Rnalib.Tree</text>
</g>
<!-- Rnalib&#45;&gt;Rnalib.Tree -->
<g id="edge7" class="edge">
<title>Rnalib&#45;&gt;Rnalib.Tree</title>
<path fill="none" stroke="black" d="M322.37,-33.33C339.99,-42.52 361.49,-55.77 377,-72 433.39,-130.99 453.4,-230.11 460.01,-277.78"/>
<polygon fill="black" stroke="black" points="461.32,-287.94 455.58,-278.59 460.68,-282.98 460.04,-278.02 460.04,-278.02 460.04,-278.02 460.68,-282.98 464.5,-277.44 461.32,-287.94 461.32,-287.94"/>
</g>
<!-- Rnalib.Predict_structure&#45;&gt;Rnalib.Rna_seq -->
<g id="edge8" class="edge">
<title>Rnalib.Predict_structure&#45;&gt;Rnalib.Rna_seq</title>
<path fill="none" stroke="black" d="M223.73,-180.38C216.01,-190.37 206.7,-203.4 200,-216 189.41,-235.92 180.71,-259.99 174.91,-278.07"/>
<polygon fill="black" stroke="black" points="171.91,-287.69 170.59,-276.8 173.4,-282.91 174.88,-278.14 174.88,-278.14 174.88,-278.14 173.4,-282.91 179.18,-279.48 171.91,-287.69 171.91,-287.69"/>
</g>
<!-- Rnalib.Predict_structure&#45;&gt;Rnalib.Rna_structure -->
<g id="edge9" class="edge">
<title>Rnalib.Predict_structure&#45;&gt;Rnalib.Rna_structure</title>
<path fill="none" stroke="black" d="M259.75,-180.3C270.84,-189.12 284.47,-199.97 296.49,-209.53"/>
<polygon fill="black" stroke="black" points="304.5,-215.9 293.87,-213.19 300.58,-212.78 296.67,-209.67 296.67,-209.67 296.67,-209.67 300.58,-212.78 299.47,-206.15 304.5,-215.9 304.5,-215.9"/>
</g>
<!-- Rnalib.Predict_structure&#45;&gt;Rnalib.Scores -->
<g id="edge10" class="edge">
<title>Rnalib.Predict_structure&#45;&gt;Rnalib.Scores</title>
<path fill="none" stroke="black" d="M231.79,-180.03C226.03,-198.96 220.09,-229.79 233,-252 240.59,-265.06 252.73,-275.16 265.76,-282.88"/>
<polygon fill="black" stroke="black" points="274.89,-287.84 263.95,-287.02 270.5,-285.45 266.1,-283.06 266.1,-283.06 266.1,-283.06 270.5,-285.45 268.25,-279.11 274.89,-287.84 274.89,-287.84"/>
</g>
<!-- Rnalib.Rna_parser&#45;&gt;Rnalib.Alphabet -->
<g id="edge11" class="edge">
<title>Rnalib.Rna_parser&#45;&gt;Rnalib.Alphabet</title>
<path fill="none" stroke="black" d="M158.85,-108.04C145.56,-117.06 130.97,-129.32 122,-144 81.81,-209.81 75.79,-303.81 75.47,-349.69"/>
<polygon fill="black" stroke="black" points="75.48,-359.76 70.97,-349.77 75.47,-354.76 75.47,-349.76 75.47,-349.76 75.47,-349.76 75.47,-354.76 79.97,-349.75 75.48,-359.76 75.48,-359.76"/>
</g>
<!-- Rnalib.Rna_parser&#45;&gt;Rnalib.Predict_structure -->
<g id="edge12" class="edge">
<title>Rnalib.Rna_parser&#45;&gt;Rnalib.Predict_structure</title>
<path fill="none" stroke="black" d="M201.11,-108.3C206.87,-116.53 213.86,-126.52 220.21,-135.58"/>
<polygon fill="black" stroke="black" points="226.03,-143.9 216.61,-138.28 223.16,-139.8 220.29,-135.7 220.29,-135.7 220.29,-135.7 223.16,-139.8 223.98,-133.12 226.03,-143.9 226.03,-143.9"/>
</g>
<!-- Rnalib.Rna_parser&#45;&gt;Rnalib.Rna_seq -->
<g id="edge13" class="edge">
<title>Rnalib.Rna_parser&#45;&gt;Rnalib.Rna_seq</title>
<path fill="none" stroke="black" d="M162.88,-108.18C151.42,-117.31 139.19,-129.61 133,-144 113.57,-189.14 135.6,-246.31 152.15,-278.96"/>
<polygon fill="black" stroke="black" points="156.85,-287.88 148.21,-281.13 154.52,-283.46 152.19,-279.03 152.19,-279.03 152.19,-279.03 154.52,-283.46 156.17,-276.93 156.85,-287.88 156.85,-287.88"/>
</g>
<!-- Rnalib.Rna_parser&#45;&gt;Rnalib.Rna_structure -->
<g id="edge14" class="edge">
<title>Rnalib.Rna_parser&#45;&gt;Rnalib.Rna_structure</title>
<path fill="none" stroke="black" d="M263.31,-98.06C293.12,-104.97 324.69,-118.33 343,-144 356.05,-162.29 349.24,-187.89 340.67,-206.94"/>
<polygon fill="black" stroke="black" points="336.27,-215.96 336.61,-205 338.46,-211.47 340.65,-206.98 340.65,-206.98 340.65,-206.98 338.46,-211.47 344.7,-208.95 336.27,-215.96 336.27,-215.96"/>
</g>
<!-- Rnalib.Rna_seq&#45;&gt;Rnalib.Alphabet -->
<g id="edge15" class="edge">
<title>Rnalib.Rna_seq&#45;&gt;Rnalib.Alphabet</title>
<path fill="none" stroke="black" d="M144.51,-324.3C133.04,-333.12 118.94,-343.97 106.52,-353.53"/>
<polygon fill="black" stroke="black" points="98.24,-359.9 103.42,-350.23 102.2,-356.85 106.16,-353.8 106.16,-353.8 106.16,-353.8 102.2,-356.85 108.91,-357.37 98.24,-359.9 98.24,-359.9"/>
</g>
<!-- Rnalib.Rna_structure&#45;&gt;Rnalib.Rna_seq -->
<g id="edge16" class="edge">
<title>Rnalib.Rna_structure&#45;&gt;Rnalib.Rna_seq</title>
<path fill="none" stroke="black" d="M287.1,-252.12C265.37,-261.69 238.1,-273.7 215.04,-283.85"/>
<polygon fill="black" stroke="black" points="205.77,-287.93 213.11,-279.78 210.35,-285.92 214.92,-283.9 214.92,-283.9 214.92,-283.9 210.35,-285.92 216.73,-288.02 205.77,-287.93 205.77,-287.93"/>
</g>
<!-- Rnalib.Rna_structure&#45;&gt;Rnalib.Scores -->
<g id="edge17" class="edge">
<title>Rnalib.Rna_structure&#45;&gt;Rnalib.Scores</title>
<path fill="none" stroke="black" d="M326,-252.3C326,-260.02 326,-269.29 326,-277.89"/>
<polygon fill="black" stroke="black" points="326,-287.9 321.5,-277.9 326,-282.9 326,-277.9 326,-277.9 326,-277.9 326,-282.9 330.5,-277.9 326,-287.9 326,-287.9"/>
</g>
<!-- Rnalib.Rna_structure&#45;&gt;Rnalib.Tree -->
<g id="edge18" class="edge">
<title>Rnalib.Rna_structure&#45;&gt;Rnalib.Tree</title>
<path fill="none" stroke="black" d="M359.51,-252.12C377.84,-261.49 400.74,-273.19 420.33,-283.2"/>
<polygon fill="black" stroke="black" points="429.36,-287.81 418.4,-287.27 424.9,-285.54 420.45,-283.26 420.45,-283.26 420.45,-283.26 424.9,-285.54 422.5,-279.25 429.36,-287.81 429.36,-287.81"/>
</g>
</g>
</svg>
